<svg version="1.1" id="Layer_1" xmlns="http://www.w3.org/2000/svg" xmlns:xlink="http://www.w3.org/1999/xlink" x="0px" y="0px"
	 width="100%" viewBox="0 0 672 1024" xml:space="preserve" >
	

<path fill="black" opacity="1.000000" stroke="none" 
	d="
M38.930992,543.000000 
	C38.930187,403.007874 38.926464,263.515747 38.936600,124.023613 
	C38.937222,115.502571 39.809284,107.118080 42.603889,98.972298 
	C49.445198,79.031059 68.725182,64.235504 89.775665,62.557098 
	C96.274513,62.038933 102.751869,62.011532 109.243355,62.011402 
	C267.401093,62.008240 425.558868,62.040031 583.716614,62.007629 
	C603.855896,62.003502 620.905457,68.352859 633.529541,84.754364 
	C642.546387,96.469215 644.940369,110.021767 644.947754,124.275948 
	C644.993469,212.770920 645.034607,301.265900 645.037231,389.760895 
	C645.042297,559.084656 645.026672,728.408447 644.997131,897.732178 
	C644.994934,910.117004 644.322571,922.424011 638.133728,933.625061 
	C626.508179,954.666077 608.029785,964.123779 584.609680,964.171448 
	C501.448029,964.340759 418.285858,964.262512 335.123901,964.268494 
	C256.461670,964.274170 177.799408,964.294800 99.137192,964.252686 
	C70.755638,964.237488 48.141197,947.581482 41.329548,921.758911 
	C39.146950,913.484863 38.986458,904.963684 38.983326,896.478699 
	C38.939892,778.819153 38.940987,661.159546 38.930992,543.000000 
M635.743347,821.500000 
	C635.749329,589.005676 635.757629,356.511322 635.742676,124.016991 
	C635.742371,119.859795 635.907593,115.629707 635.240295,111.557388 
	C631.218628,87.015236 611.688843,71.085800 585.876343,71.087349 
	C436.379883,71.096306 286.883453,71.110626 137.387009,71.135437 
	C122.221489,71.137955 107.038200,70.785103 91.895874,71.401306 
	C78.791283,71.934570 67.967819,78.089775 59.471272,87.994576 
	C51.050137,97.811470 48.139584,109.413811 48.150173,122.263985 
	C48.270565,268.427063 48.225437,414.590302 48.219814,560.753479 
	C48.215431,674.750793 48.614700,788.750549 47.915623,902.743652 
	C47.734695,932.245605 70.797974,956.295471 100.143364,955.209290 
	C132.764603,954.001831 165.464920,954.930237 198.130814,954.929810 
	C327.461060,954.928223 456.791840,954.733582 586.121216,955.073242 
	C615.319519,955.149902 636.495056,930.631897 635.880981,905.494263 
	C635.205566,877.844849 635.737061,850.166016 635.743347,821.500000 
z"/>
<path fill="red" opacity="1.000000" stroke="none" 
	d="
M461.456970,561.584229 
	C447.950653,554.630249 437.265717,543.880859 423.789520,537.475037 
	C420.979187,539.930298 419.585785,542.995483 417.947693,545.843933 
	C409.228485,561.005737 400.907898,576.407776 391.810638,591.337524 
	C385.312317,602.002197 378.711365,612.505554 373.857483,624.095703 
	C369.366547,634.819214 371.385193,643.931030 379.022736,652.117798 
	C381.770905,655.063599 384.152374,658.256836 386.408722,661.543884 
	C388.798645,665.025513 388.087128,666.611206 384.084656,667.377991 
	C377.307556,668.676208 370.511414,668.903503 363.770752,667.242920 
	C358.033478,665.829529 356.332642,662.528809 358.911987,657.224121 
	C361.025787,652.877014 361.051666,649.657593 356.732391,646.452332 
	C352.558411,643.354919 352.090607,637.387085 354.764923,631.309143 
	C357.782501,624.450989 361.238434,617.768311 363.935547,610.789734 
	C373.114563,587.039978 379.827026,562.545532 385.420837,537.728821 
	C386.077606,534.815247 385.171143,533.226440 382.159149,532.936890 
	C380.013184,532.730530 377.842804,532.196411 375.725739,532.359314 
	C346.565277,534.603027 319.219696,527.840210 292.833679,516.004700 
	C286.327423,513.086304 286.148346,513.321655 283.851257,520.244324 
	C280.881836,529.193359 275.843903,537.045044 270.897247,544.962341 
	C266.399994,552.160339 261.981598,559.375549 259.363953,567.591553 
	C257.724182,572.738403 258.707184,577.006104 261.689972,581.214661 
	C267.218597,589.015198 273.458252,596.318298 281.009430,602.039734 
	C293.342682,611.384521 296.250885,625.102478 299.021362,638.732178 
	C300.268219,644.866150 297.507019,651.182434 294.956146,656.995422 
	C293.894257,659.415283 291.691742,659.986389 289.614349,658.183289 
	C284.457214,653.707031 279.250885,649.201538 275.724457,643.246887 
	C273.454346,639.413513 272.984711,635.732483 277.946320,633.210754 
	C280.840912,631.739502 280.005646,629.471741 278.588470,627.310913 
	C268.096283,611.313232 254.841187,597.878235 240.114243,585.806641 
	C237.281891,583.485046 234.447891,581.165344 231.626221,578.830750 
	C226.099655,574.258179 225.408508,570.152527 229.116241,564.017822 
	C234.436020,555.215759 238.437790,543.966919 239.058868,535.864014 
	C236.649048,535.603516 235.004944,537.096802 233.461121,538.434204 
	C217.192459,552.527466 201.660995,567.449219 188.136978,584.166382 
	C179.583221,594.739746 177.567108,608.422668 174.417053,621.347595 
	C173.554337,624.887451 173.008728,628.547363 172.751556,632.182861 
	C172.225250,639.622742 173.886658,646.399780 179.556671,651.765625 
	C182.600723,654.646301 185.108017,657.958069 187.069412,661.683899 
	C188.085617,663.614319 188.211029,665.662964 185.838013,666.062500 
	C176.852600,667.575256 167.643646,669.568237 159.148666,664.515442 
	C153.396133,661.093750 152.880249,657.447510 157.005615,652.232239 
	C160.913834,647.291504 159.923843,642.334656 156.891174,637.903992 
	C153.369370,632.758606 153.449051,628.088135 155.640778,622.448547 
	C163.065613,603.343506 169.248016,583.854797 171.820023,563.392090 
	C172.246246,560.001160 173.803757,557.105103 176.451462,554.786133 
	C179.832962,551.824341 183.235977,548.862854 186.372284,545.649963 
	C195.889572,535.900330 199.103561,524.593262 195.019287,511.268280 
	C191.803940,500.778168 189.047974,490.180725 187.445724,479.247955 
	C185.575180,466.484558 187.213470,454.409973 192.098907,442.611115 
	C192.694168,441.173523 194.067749,439.817657 193.055145,437.738098 
	C189.681290,437.423828 187.614731,439.620544 185.798843,441.921570 
	C181.817230,446.966797 180.366776,452.952148 180.316956,459.220947 
	C180.191162,475.051483 180.257507,490.883514 180.230637,506.714935 
	C180.225845,509.532288 180.259064,512.370850 178.553253,515.379272 
	C175.967789,513.068115 177.308914,509.544708 175.007721,506.480408 
	C178.014420,540.486633 168.635284,567.808411 137.649384,584.362915 
	C136.829590,580.538452 140.048721,578.010376 140.088623,574.322693 
	C135.058792,575.885986 130.477783,578.961853 123.705879,577.402710 
	C133.090424,570.156921 136.884918,560.868469 139.548218,550.571167 
	C136.515884,549.656555 135.068588,552.938293 132.098969,551.972717 
	C133.894943,546.799866 135.936539,541.674438 136.797409,536.170349 
	C139.413940,519.441345 138.425537,502.613098 138.621201,485.816315 
	C138.811829,469.454132 143.808014,454.591125 153.586975,441.630066 
	C165.623322,425.677094 181.127777,417.171936 201.784439,421.996826 
	C203.832092,422.475067 205.275192,421.965759 206.883362,420.936310 
	C229.424850,406.506958 254.015228,403.947021 279.843323,408.260712 
	C297.243805,411.166901 314.045197,416.858307 331.567719,419.188629 
	C339.441284,420.235748 347.254425,419.962860 354.823151,417.721680 
	C366.806946,414.173126 378.315491,409.409424 389.594757,402.716614 
	C386.158234,399.703308 388.142639,397.609283 390.188599,395.341522 
	C394.081573,391.026459 397.576538,386.354706 401.966034,382.621552 
	C401.260437,380.617310 399.002197,381.583435 397.982819,379.502350 
	C401.325378,373.055664 407.789795,369.668579 414.310913,365.834045 
	C411.619049,363.040314 407.824371,365.633301 404.997314,362.980164 
	C414.888428,356.727234 422.526093,347.548645 435.028046,344.314087 
	C430.743164,342.699585 432.265991,341.171783 434.173065,339.681885 
	C439.503815,335.517151 445.632690,332.935699 451.976837,330.812378 
	C466.669434,325.894989 481.764038,323.750244 497.231598,324.687439 
	C507.703278,325.321930 517.284973,324.107910 523.483032,314.181671 
	C523.790405,313.689392 524.555725,313.483063 525.585388,312.849945 
	C528.508667,317.624237 525.408325,322.314941 526.012817,327.483643 
	C533.009888,327.140137 536.191895,321.026062 541.244507,317.188263 
	C543.443298,321.760498 542.266785,326.032837 539.804260,329.026245 
	C533.243958,337.001129 535.822144,343.566681 541.664429,350.193848 
	C546.008728,355.121887 547.855530,360.963135 548.448425,367.516510 
	C549.317505,377.123566 553.596436,385.710022 557.775879,394.231628 
	C560.340942,399.461517 563.221619,404.537079 565.978455,409.672333 
	C569.174988,415.626556 566.861206,427.480743 560.848511,430.364014 
	C555.356812,432.997375 549.431763,436.128357 542.776428,434.193573 
	C539.531128,433.250153 537.082153,431.362457 536.693298,427.706604 
	C536.362610,424.596680 534.489502,422.511292 532.111572,420.879639 
	C526.454529,416.998108 521.295654,412.568848 516.538696,407.627716 
	C515.292969,406.333740 513.733704,405.129669 512.083984,404.474823 
	C506.209106,402.142761 500.291992,399.953827 495.693542,395.181396 
	C492.134857,398.084412 491.517792,402.012482 490.402191,405.533813 
	C485.929199,419.652527 481.954803,433.934265 477.249451,447.972534 
	C474.265228,456.875763 476.771027,465.368561 477.497986,474.091125 
	C478.895355,490.857819 475.970428,506.626801 464.789459,519.956787 
	C462.930145,522.173523 462.811737,524.202515 464.502808,526.213867 
	C473.581635,537.012085 480.696960,549.556702 492.535248,557.908752 
	C498.397125,562.044373 500.388245,568.510986 500.995361,574.862732 
	C502.374512,589.291199 504.776398,603.515137 507.586548,617.697388 
	C508.015594,619.862610 507.826813,621.966370 507.642517,624.140320 
	C507.039398,631.252197 505.800720,638.302185 506.649963,645.537964 
	C507.398132,651.912415 504.521606,657.568176 501.676575,663.059570 
	C500.613922,665.110657 498.771240,665.976501 496.702087,664.395020 
	C490.777435,659.866760 485.640198,654.678162 484.061462,647.015137 
	C482.761749,640.706543 484.911011,636.917114 490.978821,634.326660 
	C493.725708,633.153931 494.699890,631.144165 492.618347,628.881409 
	C489.577667,625.575867 489.508087,621.764160 489.567566,617.694031 
	C489.672028,610.545837 489.775970,603.422913 488.800995,596.265442 
	C487.153046,584.167480 481.990845,574.454895 471.528625,567.842163 
	C468.290741,565.795532 465.024292,563.794128 461.456970,561.584229 
z"/>
<path fill="red" opacity="1.000000" stroke="none" 
	d="
M598.289185,850.088501 
	C592.701660,872.598022 587.099731,894.676575 581.742859,916.814392 
	C580.919495,920.216858 579.548645,921.369019 576.059937,921.397888 
	C561.862244,921.515259 561.794983,921.643982 558.357727,907.926025 
	C552.378906,884.064087 546.469971,860.184509 540.590881,836.297791 
	C539.559875,832.108948 538.594116,828.574707 533.043457,828.013611 
	C528.977356,827.602600 531.138000,823.460144 530.731934,820.961853 
	C530.356995,818.655396 531.350830,816.987793 533.946289,816.978210 
	C543.434753,816.943237 552.923340,816.966797 562.411926,816.972961 
	C564.828552,816.974548 565.827759,818.434143 565.341125,820.542542 
	C564.741882,823.139282 567.434082,826.755798 563.130981,828.252197 
	C556.735596,830.476135 556.657104,830.479553 558.332642,837.100952 
	C561.935608,851.338806 559.867737,848.797546 573.042908,848.816101 
	C587.141296,848.835999 584.191406,850.865295 587.789062,837.289062 
	C589.014709,832.663940 589.862183,829.125061 583.210388,828.011292 
	C579.238831,827.346252 581.216492,823.033508 580.973877,820.303467 
	C580.740173,817.673645 582.663940,816.940918 584.900574,816.934509 
	C592.392029,816.913147 599.883667,816.910706 607.375122,816.933228 
	C609.615540,816.940002 611.574219,817.677368 611.210754,820.329651 
	C610.830566,823.104736 613.324036,827.278137 608.543274,828.207458 
	C604.142029,829.063110 602.605896,831.699524 601.814880,835.645203 
	C600.868835,840.364075 599.525940,845.003235 598.289185,850.088501 
M565.027588,863.937927 
	C567.365173,873.725403 569.702698,883.512939 572.040222,893.300415 
	C576.515991,882.788513 578.806519,871.924011 581.449524,860.857544 
	C576.299927,859.864929 571.679077,860.420776 567.090271,860.365173 
	C565.254822,860.342957 564.269653,861.215698 565.027588,863.937927 
z"/>
<path fill="red" opacity="1.000000" stroke="none" 
	d="
M126.290726,115.889374 
	C131.985168,138.372864 137.609482,160.448761 143.184982,182.536972 
	C144.358856,187.187485 144.794037,191.810791 151.157028,193.100418 
	C154.395615,193.756821 152.784729,197.976624 152.800552,200.637604 
	C152.815369,203.130371 150.845993,203.374008 148.891174,203.372421 
	C140.061462,203.365280 131.231232,203.305939 122.402328,203.388107 
	C119.551819,203.414612 117.851631,202.438583 118.008522,199.417801 
	C118.160904,196.484024 116.605583,192.243225 121.387489,191.928497 
	C127.028954,191.557190 126.885513,188.898956 125.748207,184.631119 
	C122.211731,171.360260 122.315063,171.255524 108.721443,171.358810 
	C97.770363,171.442001 99.693130,169.709839 96.557358,180.649002 
	C96.099640,182.245743 95.832764,183.901306 95.312973,185.475296 
	C94.037643,189.337097 94.267822,191.779129 99.407387,191.889984 
	C104.299538,191.995514 102.908119,196.155945 103.153633,199.110764 
	C103.426926,202.399902 101.790520,203.478394 98.659897,203.421753 
	C91.498375,203.292160 84.333084,203.375305 77.169342,203.362045 
	C74.907959,203.357864 72.535378,203.285126 72.778023,200.106125 
	C72.997185,197.234756 71.048431,193.179977 75.681007,192.256393 
	C79.717285,191.451706 80.906433,188.929321 81.769600,185.434143 
	C88.383789,158.651672 95.199669,131.918686 101.721100,105.113930 
	C102.817444,100.607674 104.775627,98.833374 109.512535,98.946983 
	C124.928963,99.316734 121.092972,97.715714 125.109711,111.137459 
	C125.537827,112.567993 125.841690,114.035706 126.290726,115.889374 
M108.446571,134.848633 
	C106.666237,143.004242 103.827072,150.943161 102.717819,159.988693 
	C107.523033,159.988693 111.636284,160.030975 115.748108,159.972565 
	C118.149132,159.938492 119.025810,158.469315 118.506546,156.300064 
	C116.207916,146.697601 113.828484,137.114471 111.478294,127.524353 
	C111.176308,127.540565 110.874313,127.556778 110.572319,127.572990 
	C109.937897,129.743591 109.303482,131.914200 108.446571,134.848633 
z"/>
<path fill="red" opacity="1.000000" stroke="none" 
	d="
M103.221085,229.243973 
	C105.640450,226.245758 107.905441,223.576324 110.004463,220.782242 
	C111.816025,218.370789 113.425285,217.943130 115.493782,220.534683 
	C125.983948,233.677490 136.528214,246.777161 147.070679,259.878143 
	C148.505386,261.661011 148.790268,263.307648 147.224258,265.237488 
	C136.212219,278.807983 125.252159,292.420685 114.252647,306.001404 
	C113.970131,306.350220 113.426346,306.487427 112.786804,306.844971 
	C109.919121,305.045410 108.248810,302.091003 106.180359,299.583344 
	C97.172989,288.663361 88.391090,277.556000 79.295135,266.711426 
	C76.728615,263.651520 76.910316,261.618744 79.414131,258.633575 
	C87.438675,249.066467 95.157707,239.243103 103.221085,229.243973 
z"/>
<path fill="red" opacity="1.000000" stroke="none" 
	d="
M589.424194,780.405945 
	C583.367615,787.878479 577.542053,795.078674 572.005371,801.921753 
	C569.645569,801.784668 569.002991,800.495667 568.192200,799.495972 
	C558.024841,786.959778 547.954224,774.343933 537.671692,761.903259 
	C535.344238,759.087341 535.155396,757.117188 537.553528,754.197388 
	C547.796997,741.725403 557.852661,729.098022 567.882751,716.452759 
	C570.169250,713.570068 571.834290,713.717346 574.072510,716.533569 
	C584.318726,729.425537 594.652527,742.248596 605.047852,755.020752 
	C606.855957,757.242310 606.819031,758.849487 604.965576,761.065369 
	C599.736938,767.316772 594.742188,773.763733 589.424194,780.405945 
z"/>
</svg>