<svg version="1.1" id="Layer_1" xmlns="http://www.w3.org/2000/svg" xmlns:xlink="http://www.w3.org/1999/xlink" x="0px" y="0px"
	 width="100%" viewBox="0 0 1024 1024"  xml:space="preserve">

<path fill="#000101" opacity="1.000000" stroke="none" 
	d="
M644.059692,195.924347 
	C659.001526,196.601105 673.944336,197.841202 688.885010,197.816544 
	C708.985657,197.783356 728.925903,197.977676 747.802429,206.126862 
	C750.857483,207.445786 751.912292,205.579254 753.194702,203.450317 
	C759.221436,193.445724 767.351624,185.402115 776.738892,178.567307 
	C777.811523,177.786301 778.967590,177.107559 780.137329,176.478882 
	C780.529602,176.268021 781.085022,176.360504 782.340698,176.239975 
	C783.584839,188.859116 784.823853,201.425507 786.237854,215.767151 
	C800.608704,206.319519 813.673828,197.730286 828.140198,188.219833 
	C827.812012,194.663544 827.817871,199.735382 827.245239,204.741043 
	C825.942810,216.125427 821.755798,226.373672 813.926880,234.861374 
	C811.303467,237.705490 811.758911,239.338181 814.599915,241.634857 
	C827.553528,252.106613 835.322388,265.622040 840.727112,281.493896 
	C848.016052,302.898926 857.343262,323.622467 866.108459,344.507233 
	C870.942322,356.024902 876.729858,367.146637 881.425659,378.715485 
	C883.006348,382.609619 883.636902,387.545258 882.837280,391.640869 
	C878.378418,414.479156 857.482422,426.082184 835.906433,418.107635 
	C830.024780,415.933746 825.578491,412.527802 824.009888,405.800446 
	C823.255615,402.565338 821.285400,399.245728 818.975708,396.807617 
	C810.734497,388.107971 802.270142,379.603424 793.589600,371.340881 
	C784.559021,362.745300 772.968872,358.651794 761.637817,354.204803 
	C753.023010,350.823853 744.923462,346.623230 738.686584,339.549896 
	C729.769409,329.436829 724.475281,317.892273 724.907349,304.124481 
	C724.973206,302.026123 724.916504,299.923981 724.321045,297.715027 
	C720.430359,302.386505 719.385071,307.981567 719.062012,313.684204 
	C718.285400,327.395111 723.167114,339.247955 732.041931,349.389587 
	C735.062927,352.841797 735.486267,355.854797 734.483215,360.174835 
	C728.266785,386.946381 722.095337,413.735809 716.581604,440.657043 
	C715.424133,446.308655 717.186401,452.530518 717.406433,458.496918 
	C718.241272,481.131561 719.789917,503.820465 712.127014,525.805542 
	C707.507141,539.060303 707.271851,539.251526 693.705322,535.492371 
	C690.494385,534.602661 687.300598,533.651306 683.584106,532.562683 
	C682.937317,532.721619 682.805298,533.046082 682.673279,533.370605 
	C696.287415,544.382507 712.560791,550.120789 728.701538,555.809570 
	C742.181946,560.560791 756.141479,563.946350 769.861877,568.027100 
	C774.639038,569.447998 779.440552,570.882141 784.047913,572.759399 
	C794.287720,576.931763 801.683105,584.169128 805.180420,594.734558 
	C807.999695,603.251526 810.633728,611.889160 812.481628,620.656311 
	C816.839478,641.331116 823.968140,660.979370 833.062988,679.978210 
	C834.141418,682.231018 835.081360,684.554199 836.240173,686.763611 
	C842.505615,698.709656 846.490417,710.745239 844.325073,724.882874 
	C842.946350,733.884827 844.917297,743.440308 845.689514,752.722412 
	C847.167175,770.482361 845.165588,787.336304 833.877136,802.011169 
	C829.626160,807.537415 828.002319,807.891174 823.548096,802.536194 
	C815.909241,793.352417 808.228516,784.133789 801.486084,774.298584 
	C796.994568,767.746765 795.448364,759.859070 797.699646,751.791443 
	C799.643982,744.823792 804.245117,739.983337 810.321716,736.318359 
	C816.081055,732.844727 816.853699,728.875732 812.955627,723.653687 
	C807.122437,715.839355 804.660461,709.525696 802.379272,700.066406 
	C795.867432,673.063904 786.328674,647.195740 772.595459,622.959778 
	C767.480530,613.933228 759.936584,607.814636 749.575867,607.457947 
	C732.805176,606.880554 715.994568,607.462891 698.427917,607.595703 
	C694.677551,607.527588 691.699951,607.324463 688.722534,607.326965 
	C673.134521,607.340027 657.546448,607.405273 641.958435,607.452271 
	C640.512878,607.313660 639.067322,607.174988 636.827026,607.035278 
	C634.008179,606.840332 631.984192,606.646484 629.960144,606.452637 
	C629.145203,606.325684 628.330200,606.198730 626.791992,606.029663 
	C625.218872,605.965393 624.369080,605.943115 623.519226,605.920776 
	C614.122864,600.715149 607.741577,592.427368 601.416321,584.126343 
	C595.695374,576.618347 590.161804,568.967529 584.263428,561.172729 
	C583.981262,560.965698 584.033325,560.960571 584.033325,560.960571 
	C587.602356,570.205750 590.802307,579.618164 594.885315,588.630493 
	C597.162048,593.655823 600.907410,598.015869 604.789490,603.882568 
	C596.023193,604.618835 588.338562,605.349121 580.640930,605.896484 
	C544.316895,608.479553 509.760620,600.416016 475.973572,588.148315 
	C446.396057,577.409058 417.729889,564.106445 387.009186,556.600098 
	C383.061096,555.635376 383.234528,553.402344 384.305908,550.222961 
	C390.206024,532.713867 393.161041,514.705200 393.050110,496.211243 
	C393.039368,494.422302 393.048676,492.633240 392.121338,490.745331 
	C391.805939,491.954742 391.334351,493.146790 391.197815,494.376099 
	C387.292358,529.535767 370.442993,558.229675 346.843384,583.616821 
	C326.893951,605.077332 303.016937,620.787476 276.452972,632.824402 
	C264.020294,638.458008 251.905106,644.805786 239.741974,651.017822 
	C219.812759,661.196167 207.877411,677.681580 201.988968,699.014038 
	C195.753860,721.602417 192.286469,744.601807 191.123444,767.970764 
	C190.528519,779.924622 193.405228,790.658264 201.839096,799.693970 
	C207.059860,805.287231 212.389603,810.980469 216.455307,817.398499 
	C221.389374,825.187317 225.209167,833.708313 229.176010,842.071472 
	C230.968826,845.851318 229.163971,848.021790 224.968643,848.357483 
	C206.764771,849.813843 188.662476,849.040527 170.774017,845.387451 
	C168.798325,844.984009 166.441452,842.223816 165.827774,840.103333 
	C163.135422,830.800354 163.123383,821.355957 166.185623,812.059448 
	C169.087082,803.251160 167.722687,798.964294 160.292160,793.573669 
	C158.006531,791.915466 155.752518,790.169800 153.714050,788.223328 
	C147.910889,782.681763 146.141052,776.351624 148.533783,768.290710 
	C156.402267,741.782410 164.179626,715.233948 171.188461,688.490234 
	C173.910767,678.102722 174.779846,667.184998 175.951660,656.449768 
	C176.871521,648.022705 179.190796,640.544189 185.716263,634.717896 
	C193.916580,627.396118 201.962814,619.902100 210.134964,612.548462 
	C231.959167,592.910034 239.554962,568.652222 234.660675,539.855896 
	C232.714432,528.404968 231.388107,516.714172 231.265259,505.116760 
	C231.032288,483.117493 236.403229,462.239319 246.643036,442.684082 
	C247.612076,440.833435 248.416245,438.896484 249.988510,435.510162 
	C246.304352,436.264343 243.891525,436.424835 241.738647,437.257477 
	C233.034286,440.624023 227.361221,447.339478 223.033890,455.238678 
	C213.458130,472.718414 208.150864,491.528595 206.006500,511.291412 
	C203.264389,536.562927 193.647797,557.826721 170.931808,571.498169 
	C137.905182,591.375122 85.291039,581.243469 66.471466,548.650208 
	C65.254509,546.542603 64.259392,544.306885 62.434708,540.691589 
	C65.799973,541.619873 67.775520,542.005981 69.634338,542.703308 
	C82.181664,547.409973 95.164825,550.316650 108.283730,546.805115 
	C115.632462,544.838074 122.416679,540.510803 129.180420,536.752380 
	C131.404297,535.516663 132.765091,532.727722 134.266708,530.060425 
	C107.927513,535.340332 88.355515,524.349731 71.260101,506.990692 
	C71.413292,506.405273 71.566483,505.819855 71.719681,505.234436 
	C75.082191,505.589844 78.448792,505.910522 81.806580,506.306030 
	C110.404976,509.674377 131.888382,498.177094 144.916031,472.525177 
	C151.502502,459.556122 158.949829,447.182465 169.014618,436.518127 
	C193.962769,410.083862 224.179184,404.018738 258.191559,413.826996 
	C263.964539,415.491730 267.526672,414.544556 271.858490,410.672546 
	C304.671295,381.342804 342.560547,371.551788 385.516113,381.855194 
	C404.940521,386.514374 424.276367,391.701324 443.892151,395.365265 
	C470.201782,400.279541 496.296906,398.728058 521.470337,388.699921 
	C535.338074,383.175598 547.131958,374.643890 557.064209,363.527771 
	C557.895813,362.597015 558.508850,361.470917 559.890320,359.469391 
	C543.674927,362.374390 529.721191,359.647461 515.991333,349.153320 
	C543.847778,341.520233 560.281860,320.505951 580.800232,302.324860 
	C567.467651,303.327789 555.805969,302.425629 544.851624,295.536163 
	C545.870850,294.729095 546.321045,294.284912 546.847900,293.968353 
	C558.674866,286.862732 570.885437,280.317566 582.239197,272.523956 
	C593.716675,264.645416 605.313171,257.314606 618.606934,252.949722 
	C619.650635,252.607025 620.606445,251.996552 622.771667,250.940628 
	C611.179199,247.539474 600.439026,244.678070 592.490173,235.445770 
	C619.648621,229.543030 646.055237,223.803711 672.544861,218.046341 
	C661.903137,212.967010 651.248474,207.113388 643.984253,196.412323 
	C643.945618,196.031174 644.059692,195.924347 644.059692,195.924347 
M795.731934,292.829010 
	C800.462952,296.827087 805.790588,299.418732 812.114319,298.889771 
	C816.504089,298.522583 817.364136,296.603455 815.106262,292.907654 
	C811.351990,286.762421 805.523071,284.325928 798.635376,284.441833 
	C796.479248,284.478119 794.343750,285.741180 792.198853,286.442719 
	C793.208801,288.407318 794.218750,290.371887 795.731934,292.829010 
M853.479553,385.109467 
	C852.691467,386.902435 851.285400,388.696289 851.288025,390.488098 
	C851.290710,392.303284 852.290894,395.292145 853.544739,395.713806 
	C857.596375,397.076416 861.306458,395.140564 863.251526,391.612366 
	C864.280212,389.746368 864.461365,386.000885 863.268982,384.615356 
	C860.757507,381.697083 857.116150,381.801971 853.479553,385.109467 
z"/>
<path fill="#010101" opacity="1.000000" stroke="none" 
	d="
M348.292145,691.707520 
	C341.484161,685.240295 340.215302,678.035461 343.318665,669.579773 
	C347.332947,658.642090 351.313049,647.660889 354.564301,636.482239 
	C358.178741,624.054810 359.587677,611.370911 356.143036,598.498047 
	C355.704895,596.860840 356.730591,594.328064 357.892731,592.851196 
	C363.849548,585.281494 370.211914,578.029907 376.132751,570.433472 
	C378.391968,567.534912 380.961212,567.735229 383.692596,568.567810 
	C393.564575,571.576843 403.475891,574.499756 413.194611,577.955200 
	C421.659241,580.964783 429.836121,584.774597 438.235321,587.981445 
	C442.259399,589.517761 442.849701,591.701416 441.590027,595.677551 
	C434.959961,616.604980 424.215302,635.251831 410.919617,652.569702 
	C407.271027,657.322021 403.751587,662.194824 400.489441,667.217896 
	C394.854584,675.894531 394.416412,680.387756 401.274445,687.968933 
	C411.856628,699.666931 423.082855,710.852844 434.730347,721.495972 
	C445.536438,731.370483 457.633179,739.833984 468.420563,749.726868 
	C474.568176,755.364807 479.387421,762.501343 484.515564,769.184998 
	C488.557983,774.453613 491.896271,780.268127 496.005890,785.478455 
	C506.692688,799.027649 515.686707,813.239929 516.183411,831.242737 
	C516.409607,839.440857 515.429932,840.261047 507.395569,839.335144 
	C495.184387,837.927856 483.446075,834.805603 472.723389,828.791016 
	C468.619202,826.488953 464.740234,823.254578 461.736786,819.633728 
	C455.838745,812.523315 455.990936,809.493347 461.396942,801.889160 
	C464.241028,797.888550 463.963654,794.140015 460.355072,791.287781 
	C457.016327,788.648987 452.944214,786.956299 449.300049,784.678955 
	C446.963165,783.218445 443.930267,781.940430 442.725800,779.747620 
	C433.689911,763.297363 419.967957,751.062439 406.073273,739.169495 
	C387.230988,723.041748 367.752502,707.657288 348.292145,691.707520 
z"/>
<path fill="#010101" opacity="1.000000" stroke="none" 
	d="
M669.722961,624.229248 
	C677.756531,643.847717 685.559875,663.138428 693.531494,682.359375 
	C699.856750,697.610596 699.089539,703.730957 687.019470,715.315979 
	C679.355652,722.671875 670.399353,728.669250 662.600708,735.899292 
	C651.507629,746.183350 640.783386,756.881470 630.203369,767.697815 
	C619.982361,778.147217 608.720886,784.231812 593.591492,779.535461 
	C589.703247,778.328552 585.387573,778.166504 581.261047,778.116150 
	C562.416626,777.885925 545.702332,771.668884 530.780640,760.425964 
	C525.091003,756.139038 524.921387,753.610901 530.457764,749.026855 
	C541.732361,739.691772 554.432922,732.806946 568.493347,728.601746 
	C573.924561,726.977356 578.713013,728.583618 582.758423,732.389099 
	C585.182495,734.669434 587.393799,737.174744 589.791626,739.484558 
	C594.097778,743.632935 598.588257,744.906921 603.330017,741.389587 
	C617.873840,730.601196 632.442627,719.749756 646.057800,707.843445 
	C653.910461,700.976440 653.910095,694.565063 647.478882,685.571045 
	C639.742859,674.752197 630.914795,664.720703 622.768921,654.186462 
	C614.317810,643.257263 606.141541,632.115967 597.792725,621.107117 
	C595.097961,617.553711 596.044739,616.220947 600.140198,614.499329 
	C607.162781,611.547363 613.285461,611.605774 620.487061,614.607300 
	C633.885071,620.191162 648.425110,620.255493 662.735901,621.103210 
	C665.058899,621.240784 667.291138,622.910095 669.722961,624.229248 
z"/>
<path fill="#353635" opacity="1.000000" stroke="none" 
	d="
M642.336304,607.654236 
	C657.546448,607.405273 673.134521,607.340027 688.722534,607.326965 
	C691.699951,607.324463 694.677551,607.527588 698.093262,607.794067 
	C694.925110,608.299988 691.321472,608.910156 687.711853,608.947510 
	C675.302246,609.075928 662.889954,609.068420 650.480164,608.956055 
	C647.888367,608.932617 645.302612,608.240234 642.336304,607.654236 
z"/>
<path fill="#353635" opacity="1.000000" stroke="none" 
	d="
M630.285156,606.641235 
	C631.984192,606.646484 634.008179,606.840332 636.460815,607.069031 
	C634.796326,607.012573 632.703308,606.921204 630.285156,606.641235 
z"/>
<path fill="#353635" opacity="1.000000" stroke="none" 
	d="
M623.813110,605.982971 
	C624.369080,605.943115 625.218872,605.965393 626.481201,606.048218 
	C625.964783,606.087463 625.035889,606.066284 623.813110,605.982971 
z"/>
<path fill="#000101" opacity="1.000000" stroke="none" 
	d="
M643.888306,196.084259 
	C643.830994,196.137329 643.980713,195.870316 644.020203,195.897339 
	C644.059692,195.924347 643.945618,196.031174 643.888306,196.084259 
z"/>
<path fill="#2B2B2A" opacity="1.000000" stroke="none" 
	d="
M795.480347,292.582733 
	C794.218750,290.371887 793.208801,288.407318 792.198853,286.442719 
	C794.343750,285.741180 796.479248,284.478119 798.635376,284.441833 
	C805.523071,284.325928 811.351990,286.762421 815.106262,292.907654 
	C817.364136,296.603455 816.504089,298.522583 812.114319,298.889771 
	C805.790588,299.418732 800.462952,296.827087 795.480347,292.582733 
z"/>
<path fill="#2B2B2A" opacity="1.000000" stroke="none" 
	d="
M853.735229,384.836853 
	C857.116150,381.801971 860.757507,381.697083 863.268982,384.615356 
	C864.461365,386.000885 864.280212,389.746368 863.251526,391.612366 
	C861.306458,395.140564 857.596375,397.076416 853.544739,395.713806 
	C852.290894,395.292145 851.290710,392.303284 851.288025,390.488098 
	C851.285400,388.696289 852.691467,386.902435 853.735229,384.836853 
z"/>
<path fill="#2B2B2A" opacity="1.000000" stroke="none" 
	d="
M682.842651,533.166382 
	C682.805298,533.046082 682.937317,532.721619 683.209106,532.474609 
	C683.236633,532.688843 683.124329,532.825562 682.842651,533.166382 
z"/>
<path fill="#2B2B2A" opacity="1.000000" stroke="none" 
	d="
M584.021362,560.976440 
	C584.033325,560.960571 583.981262,560.965698 583.981934,560.993225 
	C583.982544,561.020752 584.009399,560.992249 584.021362,560.976440 
z"/>
</svg>